<svg version="1.1" xmlns="http://www.w3.org/2000/svg" viewBox="0 0 24 24" width="24" height="24" fill="currentColor" >
  <g fill-rule="evenodd" clip-rule="evenodd">
    <path d="M0.5 1.6h8.5v-1.5c0-0.53 0.43-1 1-1h4.8c0.54 0 1 0.44 1 1v1.5h8.4c0.29 0 0.5 0.25 0.5 0.56v2.6H0V2.1c0-0.31 0.21-0.56 0.5-0.56zM3 6.2h18c0.4 0 0.75 0.33 0.71 0.73l-1.6 17.8c-0.04 0.4-0.33 0.72-0.71 0.72H5c-0.39 0-0.67-0.32-0.71-0.72L2.3 7c-0.04-0.4 0.31-0.73 0.7-0.73zM15 9h2.1v15H15V9zM6.6 9h2.1v15H6.6V9zM11 9h2.1v15H11V9z"/>
  </g>
</svg>