<svg xmlns="http://www.w3.org/2000/svg" viewBox="0 0 24 24" width="16" height="16" fill="currentColor">
  <g transform="translate(0 0) scale(0.09375)">
    <path d="M64.71 90H25.291c-4.693 0-8.584-3.67-8.859-8.355l-3.928-67.088c-.048-.825.246-1.633.812-2.234.567-.601 1.356-.941 2.183-.941h59.002c.826 0 1.615.341 2.183.941.566.601.86 1.409.813 2.234l-3.928 67.089c-.275 4.685-4.166 8.355-8.859 8.355zM18.679 17.381l3.743 63.913c.095 1.441 1.356 2.629 2.876 2.629h39.419c1.52 0 2.779-1.188 2.868-2.705l3.742-63.914H18.679z" fill="currentColor"/>
    <path d="M80.696 17.381H9.304c-1.657 0-3-1.343-3-3s1.343-3 3-3h71.393c1.657 0 3 1.343 3 3s-1.343 3-3 3z" fill="currentColor"/>
    <path d="M58.729 17.381H31.271c-1.657 0-3-1.343-3-3V8.789C28.271 3.943 32.214 0 37.061 0h15.879c4.847 0 8.789 3.943 8.789 8.789v5.592c0 1.657-1.343 3-3 3zM34.271 11.381h21.457V8.789c0-1.538-1.251-2.789-2.79-2.789H37.061c-1.538 0-2.789 1.251-2.789 2.789v2.592z" fill="currentColor"/>
    <path d="M58.33 74.991c-.06 0-.118-.002-.179-.005-1.653-.097-2.916-1.517-2.819-3.171l2.474-42.244c.097-1.655 1.508-2.933 3.171-2.819 1.653.097 2.916 1.516 2.819 3.17l-2.474 42.245c-.097 1.428-1.42 2.658-2.996 2.659z" fill="currentColor"/>
    <path d="M31.669 74.991c-1.577 0-2.898-1.23-2.992-2.824L26.204 29.922c-.097-1.654 1.165-3.073 2.819-3.17 1.646-.111 3.073 1.165 3.17 2.819l2.473 42.244c.097 1.654-1.165 3.074-2.819 3.171z" fill="currentColor"/>
    <path d="M45 74.991c-1.657 0-3-1.343-3-3V29.747c0-1.657 1.343-3 3-3 1.657 0 3 1.343 3 3v42.244c0 1.657-1.343 3-3 3z" fill="currentColor"/>
  </g>
</svg>